<?xml version="1.0" standalone="no"?>
<!DOCTYPE svg PUBLIC "-//W3C//DTD SVG 1.1//EN" "http://www.w3.org/Graphics/SVG/1.1/DTD/svg11.dtd">
<svg t="1594201080461" class="icon" viewBox="0 0 1024 1024" version="1.1"
     xmlns="http://www.w3.org/2000/svg" p-id="2034"
     xmlns:xlink="http://www.w3.org/1999/xlink" width="84" height="84">
    <defs>
        <style type="text/css"></style>
    </defs>
    <path d="M890.368 1013.76H140.288c-69.632 0-126.976-56.832-126.976-126.976v-194.048c0-22.528 18.432-40.96 40.96-40.96s40.96 18.432 40.96 40.96v194.048c0 24.576 19.968 45.056 45.056 45.056h750.08c24.576 0 45.056-19.968 45.056-45.056v-194.048c0-22.528 18.432-40.96 40.96-40.96s40.96 18.432 40.96 40.96v194.048c-0.512 70.144-57.344 126.976-126.976 126.976zM975.872 372.224c-22.528 0-40.96-18.432-40.96-40.96v-194.56c0-24.576-19.968-45.056-45.056-45.056H140.288c-24.576 0-45.056 19.968-45.056 45.056v194.048c0 22.528-18.432 40.96-40.96 40.96s-40.96-18.432-40.96-40.96V136.704C13.312 67.072 70.144 10.24 140.288 10.24h750.08c69.632 0 126.976 56.832 126.976 126.976v194.048c-0.512 22.528-18.944 40.96-41.472 40.96zM975.872 552.96h-921.6c-22.528 0-40.96-18.432-40.96-40.96s18.432-40.96 40.96-40.96h921.6c22.528 0 40.96 18.432 40.96 40.96s-18.432 40.96-40.96 40.96z" fill="#2cc15f" p-id="2035"></path>
</svg>
